<?xml version="1.0" encoding="UTF-8"?>
<svg id="Layer_1" data-name="Layer 1" xmlns="http://www.w3.org/2000/svg" version="1.1" viewBox="0 0 439.2 215.9">
  <defs>
    <style>
      .cls-1 {
        fill: #bffd4d;
      }

      .cls-1, .cls-2 {
        stroke-width: 0px;
      }

      .cls-2 {
        fill: #fff;
      }
    </style>
  </defs>
  <polygon class="cls-2" points="202.1 22.4 32.1 22.4 32.1 42.4 107.1 42.4 107.1 192.4 127.1 192.4 127.1 42.4 202.1 42.4 202.1 22.4"/>
  <polygon class="cls-2" points="32.1 60.4 32.1 80.4 70.1 80.4 70.1 192.4 90.1 192.4 90.1 60.4 32.1 60.4"/>
  <polygon class="cls-1" points="202.1 60.4 144.1 60.4 144.1 192.4 164.1 192.4 164.1 80.4 202.1 80.4 202.1 60.4"/>
  <path class="cls-2" d="M206.3,123.6h-9.2v25.8h-4.9v-25.8h-9.1v-4.1h23.2v4.1ZM225.7,126.8c.4,0,.8,0,1.2,0,.4,0,.8,0,1.1.1.4,0,.7.1,1,.2.3,0,.6.1.8.2l-.7,4.8c-1.5-.3-3-.5-4.4-.5s-3,.3-4,1c-1,.7-1.7,1.6-2.2,2.9v13.9h-4.9v-22.2h4.6l.2,3.5c.9-1.2,2-2.1,3.2-2.8,1.2-.7,2.6-1,4.1-1ZM249.9,149.4c-.1-.3-.3-.6-.3-1,0-.4-.2-.8-.2-1.2-.3.4-.7.7-1.2,1-.4.3-.9.6-1.4.8-.5.2-1.1.4-1.7.6-.6.1-1.3.2-1.9.2-1.2,0-2.2-.2-3.2-.5-.9-.3-1.8-.8-2.4-1.4-.7-.6-1.2-1.3-1.6-2.1-.4-.8-.6-1.7-.6-2.6,0-2.4.9-4.2,2.6-5.5,1.8-1.3,4.3-1.9,7.6-1.9h3.6v-1.5c0-1.2-.4-2.1-1.2-2.8-.8-.7-1.9-1-3.4-1s-1.2,0-1.7.2c-.5.2-.9.4-1.2.6-.3.3-.6.6-.7,1-.2.4-.2.8-.2,1.2h-4.9c0-.9.2-1.7.6-2.5.4-.8,1-1.5,1.8-2.2.8-.6,1.7-1.2,2.8-1.5,1.1-.4,2.4-.6,3.9-.6s2.5.2,3.7.5c1.1.3,2.1.8,2.9,1.4.8.6,1.5,1.4,1.9,2.4.5.9.7,2.1.7,3.3v9.9c0,1,0,1.9.2,2.7.1.8.4,1.5.6,2.1v.3h-5ZM244,145.9c.6,0,1.2,0,1.8-.2.6-.2,1.1-.4,1.5-.6.5-.3.8-.6,1.1-.9.3-.3.6-.7.8-1v-4.2h-3.1c-2,0-3.5.3-4.4,1-.9.6-1.4,1.6-1.4,2.7s0,.9.2,1.3c.2.4.4.7.7,1,.3.3.7.5,1.2.7.5.2,1,.2,1.7.2ZM265.4,127.2l.3,3.1c.8-1.1,1.8-2,2.9-2.6,1.1-.6,2.4-.9,3.8-.9s2.2.2,3.1.5c.9.3,1.8.8,2.4,1.5.7.7,1.2,1.6,1.6,2.7.4,1.1.6,2.4.6,4v13.9h-4.9v-13.8c0-.9-.1-1.7-.3-2.3-.2-.6-.5-1.1-.9-1.5-.4-.4-.9-.6-1.4-.8-.6-.2-1.2-.2-1.9-.2-1.1,0-2,.2-2.8.7-.8.5-1.4,1.1-1.9,1.9v15.9h-4.9v-22.2h4.4ZM300.6,143.4c0-.4,0-.7-.2-1-.2-.3-.4-.6-.8-.8-.4-.3-.9-.5-1.6-.7-.7-.2-1.5-.4-2.6-.6-1.3-.3-2.5-.6-3.6-1-1.1-.4-2-.8-2.7-1.4-.8-.5-1.3-1.1-1.7-1.8-.4-.7-.6-1.5-.6-2.5s.2-1.8.6-2.6c.4-.8,1-1.5,1.8-2.2.8-.6,1.8-1.1,2.9-1.5,1.1-.4,2.4-.6,3.8-.6s2.8.2,4,.6c1.2.4,2.2.9,3,1.5.8.6,1.4,1.4,1.8,2.2.4.9.7,1.8.7,2.8h-4.9c0-.4,0-.9-.3-1.3-.2-.4-.5-.8-.9-1.1-.4-.3-.9-.6-1.4-.7-.6-.2-1.2-.3-1.9-.3s-1.4,0-1.9.2c-.5.2-1,.4-1.3.6-.4.2-.6.5-.8.9-.2.3-.2.7-.2,1.1s0,.7.2,1c.1.3.4.6.7.8.4.2.8.5,1.5.7.6.2,1.4.4,2.4.6,1.4.2,2.6.6,3.8.9,1.1.4,2.1.8,2.9,1.4.8.5,1.4,1.2,1.8,1.9.4.7.6,1.6.6,2.6s-.2,1.9-.7,2.7c-.5.8-1.1,1.5-1.9,2.1-.8.6-1.8,1-3,1.4-1.2.3-2.5.5-3.9.5s-3-.2-4.3-.6c-1.2-.4-2.3-1-3.1-1.7-.8-.7-1.5-1.5-1.9-2.4-.4-.9-.6-1.8-.6-2.7h4.8c0,.7.2,1.3.5,1.7.3.5.7.9,1.2,1.2.5.3,1,.5,1.6.6.6.1,1.2.2,1.8.2,1.5,0,2.7-.3,3.5-.8.8-.5,1.2-1.2,1.2-2ZM312.3,117.9h12v27.4h6.8v4.1h-18.8v-4.1h7.1v-23.4h-7.1v-4.1ZM350.8,149.4c-.1-.3-.3-.6-.3-1,0-.4-.2-.8-.2-1.2-.3.4-.7.7-1.2,1-.4.3-.9.6-1.4.8-.5.2-1.1.4-1.7.6-.6.1-1.3.2-1.9.2-1.2,0-2.2-.2-3.2-.5-.9-.3-1.8-.8-2.4-1.4-.7-.6-1.2-1.3-1.6-2.1-.4-.8-.6-1.7-.6-2.6,0-2.4.9-4.2,2.6-5.5,1.8-1.3,4.3-1.9,7.6-1.9h3.6v-1.5c0-1.2-.4-2.1-1.2-2.8-.8-.7-1.9-1-3.4-1s-1.2,0-1.7.2c-.5.2-.9.4-1.2.6-.3.3-.6.6-.7,1-.2.4-.2.8-.2,1.2h-4.9c0-.9.2-1.7.6-2.5.4-.8,1-1.5,1.8-2.2.8-.6,1.7-1.2,2.9-1.5,1.1-.4,2.4-.6,3.9-.6s2.5.2,3.6.5c1.1.3,2.1.8,2.9,1.4.8.6,1.5,1.4,1.9,2.4.5.9.7,2.1.7,3.3v9.9c0,1,0,1.9.2,2.7.2.8.4,1.5.6,2.1v.3h-5ZM344.9,145.9c.6,0,1.2,0,1.8-.2.6-.2,1.1-.4,1.5-.6.5-.3.8-.6,1.1-.9.3-.3.6-.7.8-1v-4.2h-3.1c-2,0-3.5.3-4.4,1-.9.6-1.4,1.6-1.4,2.7s0,.9.2,1.3c.1.4.4.7.7,1,.3.3.7.5,1.2.7.5.2,1,.2,1.7.2ZM371.7,121.9v5.4h8.4v3.7h-8.4v10.6c0,.8,0,1.5.3,2.1.2.5.5,1,.8,1.3.4.3.8.6,1.3.7.5.1,1,.2,1.6.2s.9,0,1.3,0c.5,0,.9-.1,1.3-.2.4,0,.8-.1,1.2-.2.4,0,.7-.2.9-.2l.6,3.4c-.4.2-.8.4-1.3.6-.5.2-1,.3-1.6.4-.6.1-1.2.2-1.8.2-.6,0-1.3.1-1.9.1-1.1,0-2.1-.2-3.1-.5-.9-.3-1.7-.8-2.4-1.4-.7-.7-1.2-1.5-1.6-2.5-.4-1-.6-2.2-.6-3.7v-10.9h-5.4v-3.7h5.4v-5.4h4.9ZM397.4,149.8c-1.6,0-3.1-.3-4.5-.8-1.4-.5-2.5-1.3-3.5-2.3-1-1-1.7-2.1-2.2-3.4-.5-1.3-.8-2.7-.8-4.2v-.8c0-1.8.3-3.3.8-4.8.6-1.4,1.3-2.6,2.3-3.6,1-1,2.1-1.8,3.3-2.3,1.3-.5,2.6-.8,4-.8s3,.3,4.3.8c1.2.5,2.3,1.3,3.1,2.3.8,1,1.5,2.1,1.9,3.5.4,1.3.6,2.8.6,4.4v2.1h-15.4c0,.9.3,1.7.6,2.4.3.7.8,1.4,1.3,1.9.6.5,1.2,1,1.9,1.3.8.3,1.6.5,2.5.5s2.4-.2,3.4-.7c1.1-.5,1.9-1.2,2.6-2l2.7,2.5c-.4.5-.8,1.1-1.4,1.6-.6.5-1.2.9-2,1.3-.8.4-1.6.7-2.5.9-.9.2-1.9.4-3.1.4ZM396.8,130.8c-.7,0-1.3.1-1.9.4-.6.2-1.1.6-1.6,1.1-.5.5-.9,1-1.2,1.7-.3.7-.5,1.4-.7,2.3h10.4v-.4c0-.7-.2-1.3-.4-1.9-.2-.6-.5-1.2-.9-1.6-.4-.5-.9-.9-1.6-1.1-.6-.3-1.3-.4-2.2-.4ZM206.3,166.6h-9.2v25.8h-4.9v-25.8h-9.1v-4.1h23.2v4.1ZM225.7,169.8c.4,0,.8,0,1.2,0,.4,0,.8,0,1.1.1.4,0,.7.1,1,.2.3,0,.6.1.8.2l-.7,4.8c-1.5-.3-3-.5-4.4-.5s-3,.3-4,1c-1,.7-1.7,1.6-2.2,2.9v13.9h-4.9v-22.2h4.6l.2,3.5c.9-1.2,2-2.1,3.2-2.8,1.2-.7,2.6-1,4.1-1ZM236.8,170.2h11.8v18.1h6.6v4.1h-18.4v-4.1h6.9v-14h-6.9v-4.1ZM243.3,164.5c0-.8.2-1.4.7-1.9.5-.5,1.2-.8,2.1-.8s1.6.3,2.1.8c.5.5.8,1.1.8,1.9s-.3,1.4-.8,1.9-1.2.7-2.1.7-1.6-.2-2.1-.7c-.5-.5-.7-1.1-.7-1.9ZM280.4,181.6c0,1.6-.2,3.2-.6,4.5-.4,1.4-.9,2.5-1.7,3.5-.7,1-1.6,1.8-2.7,2.3-1.1.6-2.3.8-3.7.8s-2.5-.2-3.5-.7c-1-.5-1.8-1.2-2.5-2.1l-.2,2.4h-4.4v-31.5h4.9v11.4c.7-.8,1.5-1.4,2.5-1.9.9-.4,2.1-.7,3.3-.7s2.7.3,3.8.8c1.1.5,2,1.3,2.7,2.3.7,1,1.3,2.2,1.7,3.6.4,1.4.6,2.9.6,4.6v.4ZM275.5,181.2c0-1,0-1.9-.3-2.8-.2-.9-.4-1.7-.8-2.3-.4-.7-.9-1.2-1.6-1.6-.7-.4-1.5-.6-2.4-.6s-2.1.3-2.8.8c-.7.5-1.3,1.2-1.7,2.1v9.2c.4.9,1,1.6,1.7,2.1.8.5,1.7.8,2.9.8s1.7-.2,2.4-.6c.6-.4,1.2-.9,1.6-1.6.4-.7.7-1.4.9-2.3.2-.9.3-1.8.3-2.9v-.4ZM300.4,189.4c-.8,1.1-1.7,1.9-2.7,2.6-1.1.6-2.3.9-3.6.9s-2.2-.2-3.2-.5c-.9-.4-1.8-.9-2.4-1.7-.7-.8-1.2-1.8-1.6-3-.4-1.2-.6-2.6-.6-4.3v-13.1h4.9v13.2c0,1.1,0,1.9.2,2.6.2.7.4,1.3.7,1.7.3.4.7.7,1.2.9.5.2,1.1.2,1.8.2,1.3,0,2.4-.3,3.2-.8.8-.5,1.4-1.2,1.8-2.1v-15.8h4.9v22.2h-4.4l-.3-3ZM315.8,170.2l.3,3.1c.8-1.1,1.8-2,2.9-2.6,1.1-.6,2.4-.9,3.8-.9s2.2.2,3.1.5c.9.3,1.8.8,2.4,1.5.7.7,1.2,1.6,1.6,2.7.4,1.1.6,2.4.6,4v13.9h-4.9v-13.8c0-.9-.1-1.7-.3-2.3-.2-.6-.5-1.1-.9-1.5-.4-.4-.9-.6-1.4-.8-.6-.2-1.2-.2-1.9-.2-1.1,0-2,.2-2.8.7-.8.5-1.4,1.1-1.9,1.9v15.9h-4.9v-22.2h4.4ZM346.9,192.8c-1.6,0-3.1-.3-4.5-.8-1.4-.5-2.5-1.3-3.5-2.3-1-1-1.7-2.1-2.2-3.4-.5-1.3-.8-2.7-.8-4.2v-.8c0-1.8.3-3.3.8-4.8.6-1.4,1.3-2.6,2.3-3.6,1-1,2.1-1.8,3.3-2.3,1.3-.5,2.6-.8,4-.8s3,.3,4.3.8c1.2.5,2.3,1.3,3.1,2.3.8,1,1.5,2.1,1.9,3.5.4,1.3.6,2.8.6,4.4v2.1h-15.4c0,.9.3,1.7.6,2.4.3.7.8,1.4,1.3,1.9.6.5,1.2,1,1.9,1.3.8.3,1.6.5,2.5.5s2.4-.2,3.4-.7c1.1-.5,1.9-1.2,2.6-2l2.7,2.5c-.4.5-.8,1.1-1.4,1.6-.6.5-1.2.9-2,1.3-.8.4-1.6.7-2.5.9-.9.2-1.9.4-3.1.4ZM346.4,173.8c-.7,0-1.3.1-1.9.4-.6.2-1.1.6-1.6,1.1-.5.5-.9,1-1.2,1.7-.3.7-.5,1.4-.7,2.3h10.4v-.4c0-.7-.2-1.3-.4-1.9-.2-.6-.5-1.2-.9-1.6-.4-.5-.9-.9-1.6-1.1-.6-.3-1.3-.4-2.2-.4Z"/>
</svg>