<?xml version="1.0" encoding="UTF-8"?>
<svg id="Layer_1" data-name="Layer 1" xmlns="http://www.w3.org/2000/svg" version="1.1" viewBox="0 0 439.2 215.9">
  <defs>
    <style>
      .cls-1 {
        fill: #000;
      }

      .cls-1, .cls-2, .cls-3 {
        stroke-width: 0px;
      }

      .cls-2 {
        fill: #bffd4d;
      }

      .cls-3 {
        fill: #fff;
      }
    </style>
  </defs>
  <g>
    <polygon class="cls-1" points="105.6 193.9 105.6 43.9 30.6 43.9 30.6 20.9 203.6 20.9 203.6 43.9 128.6 43.9 128.6 193.9 105.6 193.9"/>
    <path class="cls-3" d="M202.1,22.4v20h-75v150h-20V42.4H32.1v-20h170M205.1,19.4H29.1v26h75v150h26V45.4h75v-26h0Z"/>
  </g>
  <g>
    <polygon class="cls-1" points="68.6 193.9 68.6 81.9 30.6 81.9 30.6 58.9 91.6 58.9 91.6 193.9 68.6 193.9"/>
    <path class="cls-3" d="M90.1,60.4v132h-20v-112h-38v-20h58M93.1,57.4H29.1v26h38v112h26V57.4h0Z"/>
  </g>
  <polygon class="cls-2" points="202.1 60.4 144.1 60.4 144.1 192.4 164.1 192.4 164.1 80.4 202.1 80.4 202.1 60.4"/>
  <g>
    <path class="cls-1" d="M294.1,193.4c-1.2,0-2.3-.2-3.3-.6-1-.4-1.9-1-2.6-1.8-.7-.8-1.3-1.9-1.7-3.1-.4-1.3-.6-2.8-.6-4.5v-13.6h5.9v13.7c0,1,0,1.9.2,2.5.1.6.4,1.1.6,1.5.3.3.6.6,1,.7.4.1,1,.2,1.6.2,1.2,0,2.2-.2,2.9-.7.7-.4,1.2-1,1.6-1.8v-16.1h5.9v23.2h-5.4l-.2-2.2c-.6.7-1.3,1.3-2.1,1.7-1.1.6-2.4,1-3.8,1ZM346.9,193.3c-1.7,0-3.3-.3-4.7-.9-1.4-.6-2.6-1.4-3.6-2.4-1-1-1.8-2.2-2.3-3.6-.6-1.4-.8-2.9-.8-4.4v-.8c0-1.8.3-3.5.9-4.9.6-1.5,1.4-2.7,2.4-3.8,1-1,2.2-1.9,3.5-2.4,1.3-.6,2.7-.8,4.2-.8s3.2.3,4.5.9c1.3.6,2.4,1.4,3.3,2.4.9,1,1.5,2.2,2,3.6.4,1.4.7,2.9.7,4.6v2.6h-15.3c.1.6.3,1.2.5,1.7.3.7.7,1.3,1.2,1.8.5.5,1.1.9,1.8,1.2.7.3,1.4.4,2.3.4,1.2,0,2.2-.2,3.2-.7,1-.5,1.8-1.1,2.4-1.9l.3-.4,3.4,3.2-.2.4c-.4.6-.9,1.1-1.5,1.7-.6.5-1.3,1-2.1,1.4-.8.4-1.7.7-2.7,1-1,.3-2,.4-3.2.4ZM350.9,178.8c0-.5-.2-1.1-.3-1.6-.2-.6-.5-1.1-.8-1.5-.4-.4-.8-.8-1.4-1-.6-.3-1.2-.4-2-.4s-1.2.1-1.7.3c-.5.2-1,.5-1.4,1-.4.4-.8,1-1.1,1.6-.2.5-.4,1-.5,1.6h9.3ZM271.7,193.3c-1.4,0-2.7-.3-3.7-.8-.7-.3-1.4-.8-1.9-1.3l-.2,1.7h-5.4v-32.5h5.9v10.7c.5-.5,1.1-.8,1.8-1.1,1-.5,2.2-.7,3.6-.7s2.8.3,4,.9c1.2.6,2.1,1.4,2.9,2.5.8,1,1.4,2.3,1.7,3.8.4,1.4.6,3,.6,4.7v.4c0,1.7-.2,3.2-.6,4.7-.4,1.4-1,2.7-1.7,3.7-.8,1.1-1.8,1.9-2.9,2.5-1.1.6-2.5.9-4,.9ZM266.4,185.8c.4.7.9,1.3,1.5,1.8.7.5,1.5.7,2.6.7s1.5-.2,2.1-.5c.6-.3,1-.8,1.4-1.4.4-.6.6-1.3.8-2.1.2-.9.3-1.8.3-2.8v-.4c0-.9,0-1.9-.3-2.7-.2-.8-.4-1.6-.8-2.2-.3-.6-.8-1.1-1.4-1.4-.6-.4-1.3-.5-2.2-.5s-1.9.2-2.6.7c-.6.5-1.1,1.1-1.5,1.8v8.9ZM325.1,192.9v-14.3c0-.9-.1-1.6-.3-2.1-.2-.5-.4-1-.8-1.3-.3-.3-.7-.5-1.2-.7-.5-.2-1.1-.2-1.8-.2-1,0-1.9.2-2.6.6-.7.4-1.2,1-1.7,1.7v16.3h-5.9v-23.2h5.4l.2,2.3c.7-.7,1.4-1.3,2.3-1.8,1.2-.7,2.6-1,4-1s2.3.2,3.3.5c1,.4,1.9.9,2.6,1.7.7.7,1.3,1.7,1.7,2.9.4,1.1.6,2.5.6,4.2v14.4h-5.9ZM236.3,192.9v-5.1h6.9v-13h-6.9v-5.1h12.8v18.1h6.6v5.1h-19.4ZM213.1,192.9v-23.2h5.6l.2,2.7c.8-.8,1.6-1.5,2.5-2,1.3-.7,2.8-1.1,4.4-1.1s.8,0,1.2,0c.4,0,.8,0,1.2.1.4,0,.7.1,1,.2.3,0,.6.1.8.2h.4c0,.1-.8,5.9-.8,5.9h-.5c-1.5-.5-2.9-.6-4.3-.6s-2.8.3-3.7.9c-.9.6-1.6,1.5-2,2.5v14.3h-5.9ZM191.7,192.9v-25.8h-9.1v-5.1h24.2v5.1h-9.2v25.8h-5.9ZM246.1,167.6c-1,0-1.8-.3-2.4-.9-.6-.6-.9-1.4-.9-2.3s.3-1.7.9-2.2c.6-.6,1.4-.9,2.4-.9s1.9.3,2.5.9c.6.6.9,1.3.9,2.2s-.3,1.7-.9,2.3-1.4.9-2.4.9ZM374.3,150.4c-1.2,0-2.2-.2-3.2-.5-1-.3-1.8-.9-2.6-1.5-.7-.7-1.3-1.6-1.7-2.7-.4-1.1-.6-2.4-.6-3.8v-10.4h-5.4v-4.7h5.4v-5.4h5.9v5.4h8.4v4.7h-8.4v10.1c0,.8,0,1.4.3,1.9.2.5.4.8.7,1.1.3.3.7.5,1,.6.4.1.9.2,1.4.2s.8,0,1.3,0c.4,0,.9-.1,1.3-.2.4,0,.8-.1,1.2-.2.3,0,.6-.1.9-.2h.5c0-.1.7,4.1.7,4.1l-.3.2c-.4.2-.8.4-1.4.6-.5.2-1.1.3-1.7.4-.6.1-1.2.2-1.9.3-.6,0-1.3.1-1.9.1ZM295.9,150.4c-1.7,0-3.2-.2-4.4-.7-1.3-.5-2.4-1.1-3.3-1.8-.9-.7-1.6-1.6-2-2.5-.5-1-.7-1.9-.7-2.9v-.5h5.7v.5c0,.6.2,1.1.5,1.5.3.4.6.8,1.1,1,.4.3.9.5,1.5.6.6.1,1.1.2,1.7.2,1.4,0,2.5-.2,3.2-.7.6-.4,1-.9,1-1.6s0-.5-.2-.8c-.1-.2-.3-.4-.6-.6-.4-.2-.9-.5-1.5-.7-.7-.2-1.5-.4-2.5-.6-1.3-.3-2.6-.6-3.6-1-1.1-.4-2-.9-2.8-1.4-.8-.6-1.4-1.2-1.9-2-.5-.8-.7-1.7-.7-2.7s.2-1.9.7-2.8c.5-.9,1.1-1.7,1.9-2.3.8-.7,1.9-1.2,3-1.5,1.2-.4,2.5-.6,3.9-.6s2.9.2,4.1.6c1.2.4,2.3.9,3.1,1.6.9.7,1.5,1.5,2,2.4.5.9.7,1.9.7,3v.5h-5.9v-.5c0-.4,0-.7-.2-1-.2-.4-.4-.6-.7-.9-.3-.3-.8-.5-1.3-.6-.5-.2-1.1-.3-1.8-.3s-1.3,0-1.8.2c-.5.1-.9.3-1.2.5-.3.2-.5.4-.7.7-.1.3-.2.5-.2.8s0,.6.1.8c0,.2.3.4.6.6.3.2.8.4,1.3.6.6.2,1.4.4,2.4.5,1.4.2,2.7.6,3.8.9,1.2.4,2.2.9,3,1.4.8.6,1.5,1.3,2,2.1.5.8.7,1.7.7,2.8s-.2,2.1-.7,2.9c-.5.9-1.2,1.7-2.1,2.3-.9.6-1.9,1.1-3.2,1.4-1.2.3-2.6.5-4.1.5ZM397.4,150.3c-1.7,0-3.3-.3-4.7-.9-1.4-.6-2.6-1.4-3.6-2.4-1-1-1.8-2.2-2.3-3.6-.6-1.4-.8-2.9-.8-4.4v-.8c0-1.8.3-3.5.9-4.9.6-1.5,1.4-2.7,2.4-3.8,1-1,2.2-1.9,3.5-2.4,1.3-.6,2.7-.8,4.2-.8s3.2.3,4.5.9c1.3.6,2.4,1.4,3.3,2.4.9,1,1.5,2.2,2,3.6.4,1.4.7,2.9.7,4.6v2.6h-15.3c.1.6.3,1.2.5,1.7.3.7.7,1.3,1.2,1.8.5.5,1.1.9,1.8,1.2.7.3,1.4.4,2.3.4,1.2,0,2.2-.2,3.2-.7,1-.5,1.8-1.1,2.4-1.9l.3-.4,3.4,3.2-.2.4c-.4.6-.9,1.1-1.5,1.7-.6.5-1.3,1-2.1,1.4-.8.4-1.7.7-2.7,1-1,.3-2,.4-3.2.4ZM401.3,135.8c0-.5-.2-1.1-.3-1.6-.2-.6-.5-1.1-.8-1.5-.4-.4-.8-.8-1.4-1-.6-.3-1.2-.4-2-.4s-1.2.1-1.7.3c-.5.2-1,.5-1.4,1-.4.4-.8,1-1.1,1.6-.2.5-.4,1-.5,1.6h9.3ZM343.9,150.3c-1.2,0-2.4-.2-3.4-.5-1-.4-1.9-.9-2.6-1.5-.7-.7-1.3-1.4-1.7-2.3-.4-.9-.6-1.8-.6-2.8,0-2.5,1-4.5,2.9-5.9,1.9-1.3,4.5-2,7.9-2h3.1v-1c0-1-.3-1.8-1-2.4-.7-.6-1.7-.9-3-.9s-1.1,0-1.6.2c-.4.1-.8.3-1.1.5-.3.2-.5.5-.6.8-.1.3-.2.6-.2,1v.5h-5.9v-.5c0-.9.2-1.8.6-2.7.4-.9,1.1-1.7,1.9-2.3.8-.7,1.8-1.2,3-1.6,1.2-.4,2.5-.6,4-.6s2.6.2,3.8.5c1.2.3,2.2.8,3.1,1.5.9.7,1.6,1.5,2.1,2.6.5,1,.7,2.2.7,3.5v9.9c0,.9,0,1.8.2,2.6.1.7.3,1.4.6,1.9h0v1.1h-5.8v-.3c-.3-.3-.4-.7-.5-1.1,0-.1,0-.2,0-.3-.2.1-.4.3-.5.4-.5.3-1,.6-1.5.9-.5.2-1.1.4-1.8.6-.6.1-1.3.2-2.1.2ZM346.9,139.5c-1.9,0-3.3.3-4.2.9-.8.5-1.2,1.3-1.2,2.3s0,.8.2,1.1c.1.3.3.6.6.8.2.2.6.4,1,.5.4.1.9.2,1.5.2s1.1,0,1.6-.2c.5-.2,1-.3,1.4-.6.4-.2.8-.5,1-.8.3-.3.5-.5.6-.8v-3.5h-2.6ZM243,150.3c-1.2,0-2.4-.2-3.4-.5-1-.4-1.9-.9-2.6-1.5-.7-.7-1.3-1.4-1.7-2.3-.4-.9-.6-1.8-.6-2.8,0-2.5,1-4.5,2.9-5.9,1.9-1.3,4.5-2,7.9-2h3.1v-1c0-1-.3-1.8-1-2.4-.7-.6-1.7-.9-3-.9s-1.1,0-1.6.2c-.4.1-.8.3-1.1.5-.3.2-.5.5-.6.8-.1.3-.2.6-.2,1v.5h-5.9v-.5c0-.9.2-1.8.6-2.7.4-.9,1.1-1.7,1.9-2.3.8-.7,1.8-1.2,3-1.6,1.2-.4,2.5-.6,4-.6s2.6.2,3.8.5c1.2.3,2.2.8,3.1,1.5.9.7,1.6,1.5,2.1,2.6.5,1,.7,2.2.7,3.5v9.9c0,.9,0,1.8.2,2.6.1.7.3,1.4.6,1.9h0v1.1h-5.8v-.3c-.3-.3-.4-.7-.5-1.1,0-.1,0-.2,0-.3-.2.1-.4.3-.5.4-.5.3-1,.6-1.5.9-.5.2-1.1.4-1.8.6-.6.1-1.3.2-2.1.2ZM246,139.5c-1.9,0-3.3.3-4.2.9-.8.5-1.2,1.3-1.2,2.3s0,.8.2,1.1c.1.3.3.6.6.8.2.2.6.4,1,.5.4.1.9.2,1.5.2s1.1,0,1.6-.2c.5-.2,1-.3,1.4-.6.4-.2.8-.5,1-.8.3-.3.5-.5.6-.8v-3.5h-2.6ZM311.8,149.9v-5.1h7.1v-22.4h-7.1v-5.1h13v27.4h6.8v5.1h-19.8ZM274.7,149.9v-14.3c0-.9-.1-1.6-.3-2.1-.2-.5-.4-1-.8-1.3-.3-.3-.7-.5-1.2-.7-.5-.2-1.1-.2-1.8-.2-1,0-1.9.2-2.6.6-.7.4-1.2,1-1.7,1.7v16.3h-5.9v-23.2h5.4l.2,2.3c.7-.7,1.4-1.3,2.3-1.8,1.2-.7,2.6-1,4-1s2.3.2,3.3.5c1,.4,1.9.9,2.6,1.7.7.7,1.3,1.7,1.7,2.9.4,1.1.6,2.5.6,4.2v14.4h-5.9ZM213.1,149.9v-23.2h5.6l.2,2.7c.8-.8,1.6-1.5,2.5-2,1.3-.7,2.8-1.1,4.4-1.1s.8,0,1.2,0c.4,0,.8,0,1.2.1.4,0,.7.1,1,.2.3,0,.6.1.8.2h.4c0,.1-.8,5.9-.8,5.9h-.5c-1.5-.5-2.9-.6-4.3-.6s-2.8.3-3.7.9c-.9.6-1.6,1.5-2,2.5v14.3h-5.9ZM191.7,149.9v-25.8h-9.1v-5.1h24.2v5.1h-9.2v25.8h-5.9Z"/>
    <path class="cls-3" d="M324.3,117.9v27.4h6.8v4.1h-18.8v-4.1h7.1v-23.4h-7.1v-4.1h12M206.3,119.6v4.1h-9.2v25.8h-4.9v-25.8h-9.1v-4.1h23.2M371.7,121.9v5.4h8.4v3.6h-8.4v10.6c0,.8,0,1.5.3,2.1.2.5.5,1,.8,1.3.4.3.8.6,1.3.7.5.1,1,.2,1.6.2s.9,0,1.3,0c.5,0,.9-.1,1.3-.2.4,0,.8-.1,1.2-.2.4,0,.7-.2.9-.2l.6,3.4c-.4.2-.8.4-1.3.6-.5.2-1,.3-1.6.4-.6.1-1.2.2-1.8.2-.6,0-1.3.1-1.9.1-1.1,0-2.1-.2-3.1-.5-.9-.3-1.7-.8-2.4-1.4-.7-.7-1.2-1.5-1.6-2.5-.4-1-.6-2.2-.6-3.7v-10.9h-5.4v-3.6h5.4v-5.4h4.9M396.8,126.8c1.6,0,3,.3,4.3.8,1.2.5,2.3,1.3,3.1,2.3.8,1,1.5,2.1,1.9,3.5s.6,2.8.6,4.4v2.1h-15.4c0,.9.3,1.7.6,2.4.3.7.8,1.4,1.3,1.9.6.5,1.2,1,1.9,1.3.8.3,1.6.5,2.5.5s2.4-.2,3.4-.7c1.1-.5,1.9-1.2,2.6-2l2.7,2.5c-.4.5-.8,1.1-1.4,1.6-.6.5-1.2.9-2,1.3-.8.4-1.6.7-2.5.9-.9.2-1.9.4-3.1.4-1.6,0-3.1-.3-4.5-.8-1.4-.5-2.5-1.3-3.5-2.3-1-1-1.7-2.1-2.2-3.4-.5-1.3-.8-2.7-.8-4.2v-.8c0-1.8.3-3.3.8-4.8.6-1.4,1.3-2.6,2.3-3.6,1-1,2.1-1.8,3.3-2.3,1.3-.5,2.6-.8,4-.8M391.5,136.3h10.4v-.4c0-.7-.2-1.3-.4-1.9-.2-.6-.5-1.2-.9-1.6-.4-.5-.9-.9-1.6-1.1-.6-.3-1.3-.4-2.2-.4s-1.3.1-1.9.4c-.6.2-1.1.6-1.6,1.1-.5.5-.9,1-1.2,1.7-.3.7-.5,1.4-.7,2.3M345.8,126.8c1.3,0,2.5.2,3.6.5,1.1.3,2.1.8,2.9,1.4.8.6,1.5,1.4,1.9,2.4.5.9.7,2.1.7,3.3v9.9c0,1,0,1.9.2,2.7.2.8.4,1.5.6,2.1v.3h-5c-.1-.3-.3-.6-.3-1,0-.4-.2-.8-.2-1.2-.3.4-.7.7-1.2,1-.4.3-.9.6-1.4.8-.5.2-1.1.4-1.7.6-.6.1-1.3.2-1.9.2-1.2,0-2.2-.2-3.2-.5-.9-.3-1.8-.8-2.4-1.4-.7-.6-1.2-1.3-1.6-2.1-.4-.8-.6-1.7-.6-2.6,0-2.4.9-4.2,2.6-5.5,1.8-1.3,4.3-1.9,7.6-1.9h3.6v-1.5c0-1.2-.4-2.1-1.2-2.8-.8-.7-1.9-1-3.4-1s-1.2,0-1.7.2c-.5.2-.9.4-1.2.6-.3.3-.6.6-.7,1-.2.4-.2.8-.2,1.2h-4.9c0-.9.2-1.7.6-2.5.4-.8,1-1.5,1.8-2.2.8-.6,1.7-1.2,2.9-1.5,1.1-.4,2.4-.6,3.9-.6M344.9,145.9c.6,0,1.2,0,1.8-.2.6-.2,1.1-.4,1.5-.6.5-.3.8-.6,1.1-.9.3-.3.6-.7.8-1v-4.2h-3.1c-2,0-3.5.3-4.4,1-.9.6-1.4,1.6-1.4,2.7s0,.9.2,1.3c.1.4.4.7.7,1,.3.3.7.5,1.2.7.5.2,1,.2,1.7.2M295.8,126.8c1.5,0,2.8.2,4,.6,1.2.4,2.2.9,3,1.5.8.6,1.4,1.4,1.8,2.2.4.9.7,1.8.7,2.8h-4.9c0-.4,0-.9-.3-1.3-.2-.4-.5-.8-.9-1.1-.4-.3-.9-.6-1.4-.7-.6-.2-1.2-.3-1.9-.3s-1.4,0-1.9.2c-.5.2-1,.4-1.3.6-.4.2-.6.5-.8.9-.2.3-.2.7-.2,1.1s0,.7.2,1c.1.3.4.6.7.8.4.2.8.5,1.5.7.6.2,1.4.4,2.4.6,1.4.2,2.6.6,3.8.9,1.1.4,2.1.8,2.9,1.4.8.5,1.4,1.2,1.8,1.9.4.7.6,1.6.6,2.6s-.2,1.9-.7,2.7c-.5.8-1.1,1.5-1.9,2.1-.8.6-1.8,1-3,1.4-1.2.3-2.5.5-3.9.5s-3-.2-4.3-.6c-1.2-.4-2.3-1-3.1-1.7-.8-.7-1.5-1.5-1.9-2.4-.4-.9-.6-1.8-.6-2.7h4.8c0,.7.2,1.3.5,1.7.3.5.7.9,1.2,1.2.5.3,1,.5,1.6.6.6.1,1.2.2,1.8.2,1.5,0,2.7-.3,3.5-.8.8-.5,1.2-1.2,1.2-2s0-.7-.2-1c-.2-.3-.4-.6-.8-.8-.4-.3-.9-.5-1.6-.7-.7-.2-1.5-.4-2.6-.6-1.3-.3-2.5-.6-3.6-1-1.1-.4-2-.8-2.7-1.4-.8-.5-1.3-1.1-1.7-1.8-.4-.7-.6-1.5-.6-2.5s.2-1.8.6-2.6c.4-.8,1-1.5,1.8-2.2.8-.6,1.8-1.1,2.9-1.5,1.1-.4,2.4-.6,3.8-.6M272.4,126.8c1.1,0,2.2.2,3.1.5.9.3,1.8.8,2.4,1.5.7.7,1.2,1.6,1.6,2.7.4,1.1.6,2.4.6,4v13.9h-4.9v-13.8c0-.9-.1-1.7-.3-2.3-.2-.6-.5-1.1-.9-1.5-.4-.4-.9-.6-1.4-.8-.6-.2-1.2-.2-1.9-.2-1.1,0-2,.2-2.8.7-.8.5-1.4,1.1-1.9,1.9v15.9h-4.9v-22.2h4.4l.3,3.1c.8-1.1,1.8-2,2.9-2.6,1.1-.6,2.4-.9,3.8-.9M244.9,126.8c1.3,0,2.5.2,3.7.5,1.1.3,2.1.8,2.9,1.4.8.6,1.5,1.4,1.9,2.4.5.9.7,2.1.7,3.3v9.9c0,1,0,1.9.2,2.7.1.8.4,1.5.6,2.1v.3h-5c-.1-.3-.3-.6-.3-1,0-.4-.2-.8-.2-1.2-.3.4-.7.7-1.2,1-.4.3-.9.6-1.4.8-.5.2-1.1.4-1.7.6-.6.1-1.3.2-1.9.2-1.2,0-2.2-.2-3.2-.5-.9-.3-1.8-.8-2.4-1.4-.7-.6-1.2-1.3-1.6-2.1-.4-.8-.6-1.7-.6-2.6,0-2.4.9-4.2,2.6-5.5,1.8-1.3,4.3-1.9,7.6-1.9h3.6v-1.5c0-1.2-.4-2.1-1.2-2.8-.8-.7-1.9-1-3.4-1s-1.2,0-1.7.2c-.5.2-.9.4-1.2.6-.3.3-.6.6-.7,1-.2.4-.2.8-.2,1.2h-4.9c0-.9.2-1.7.6-2.5.4-.8,1-1.5,1.8-2.2.8-.6,1.7-1.2,2.9-1.5,1.1-.4,2.4-.6,3.9-.6M244,145.9c.6,0,1.2,0,1.8-.2.6-.2,1.1-.4,1.5-.6.5-.3.8-.6,1.1-.9.3-.3.6-.7.8-1v-4.2h-3.1c-2,0-3.5.3-4.4,1-.9.6-1.4,1.6-1.4,2.7s0,.9.2,1.3c.2.4.4.7.7,1,.3.3.7.5,1.2.7.5.2,1,.2,1.7.2M225.7,126.8c.4,0,.8,0,1.2,0,.4,0,.8,0,1.1.1.4,0,.7.1,1,.2.3,0,.6.1.8.2l-.7,4.8c-1.5-.3-3-.5-4.4-.5s-3,.3-4,1c-1,.7-1.7,1.6-2.2,2.9v13.9h-4.9v-22.2h4.6l.2,3.5c.9-1.2,2-2.1,3.2-2.8,1.2-.7,2.6-1,4.1-1M265.9,160.9v11.4c.7-.8,1.5-1.4,2.5-1.9.9-.4,2.1-.7,3.3-.7s2.7.3,3.8.8c1.1.5,2,1.3,2.7,2.3.7,1,1.3,2.2,1.7,3.6.4,1.4.6,2.9.6,4.6v.4c0,1.6-.2,3.2-.6,4.5-.4,1.4-.9,2.5-1.7,3.5-.7,1-1.6,1.8-2.7,2.3-1.1.6-2.3.8-3.7.8s-2.5-.2-3.5-.7c-1-.5-1.8-1.2-2.5-2.1l-.2,2.4h-4.4v-31.5h4.9M270.5,188.8c.9,0,1.7-.2,2.4-.6.6-.4,1.2-.9,1.6-1.6.4-.7.7-1.4.9-2.3.2-.9.3-1.8.3-2.9v-.4c0-1,0-1.9-.3-2.8-.2-.9-.4-1.7-.8-2.3-.4-.7-.9-1.2-1.6-1.6-.7-.4-1.5-.6-2.4-.6s-2.1.3-2.9.8c-.7.5-1.3,1.2-1.7,2.1v9.2c.4.9,1,1.6,1.7,2.1.8.5,1.7.8,2.9.8M246.1,161.9c.9,0,1.6.3,2.1.8.5.5.8,1.1.8,1.9s-.3,1.4-.8,1.9-1.2.7-2.1.7-1.6-.2-2.1-.7c-.5-.5-.7-1.1-.7-1.9s.2-1.4.7-1.9c.5-.5,1.2-.8,2.1-.8M206.3,162.6v4.1h-9.2v25.8h-4.9v-25.8h-9.1v-4.1h23.2M346.4,169.8c1.6,0,3,.3,4.3.8,1.2.5,2.3,1.3,3.1,2.3.8,1,1.5,2.1,1.9,3.5.4,1.3.6,2.8.6,4.4v2.1h-15.4c0,.9.3,1.7.6,2.4.3.7.8,1.4,1.3,1.9.6.5,1.2,1,1.9,1.3.8.3,1.6.5,2.5.5s2.4-.2,3.4-.7c1.1-.5,1.9-1.2,2.6-2l2.7,2.5c-.4.5-.8,1.1-1.4,1.6-.6.5-1.2.9-2,1.3-.8.4-1.6.7-2.5.9-.9.2-1.9.4-3.1.4-1.6,0-3.1-.3-4.5-.8-1.4-.5-2.5-1.3-3.5-2.3-1-1-1.7-2.1-2.2-3.4-.5-1.3-.8-2.7-.8-4.2v-.8c0-1.8.3-3.3.8-4.8.6-1.4,1.3-2.6,2.3-3.6,1-1,2.1-1.8,3.3-2.3,1.3-.5,2.6-.8,4-.8M341,179.3h10.4v-.4c0-.7-.2-1.3-.4-1.9-.2-.6-.5-1.2-.9-1.6-.4-.5-.9-.9-1.6-1.1-.6-.3-1.3-.4-2.2-.4s-1.3.1-1.9.4c-.6.2-1.1.6-1.6,1.1-.5.5-.9,1-1.2,1.7-.3.7-.5,1.4-.7,2.3M322.9,169.8c1.1,0,2.2.2,3.1.5.9.3,1.8.8,2.4,1.5.7.7,1.2,1.6,1.6,2.7.4,1.1.6,2.4.6,4v13.9h-4.9v-13.8c0-.9-.1-1.7-.3-2.3-.2-.6-.5-1.1-.9-1.5-.4-.4-.9-.6-1.4-.8-.6-.2-1.2-.2-1.9-.2-1.1,0-2,.2-2.8.7-.8.5-1.4,1.1-1.9,1.9v15.9h-4.9v-22.2h4.4l.3,3.1c.8-1.1,1.8-2,2.9-2.6,1.1-.6,2.4-.9,3.8-.9M225.7,169.8c.4,0,.8,0,1.2,0,.4,0,.8,0,1.1.1.4,0,.7.1,1,.2.3,0,.6.1.8.2l-.7,4.8c-1.5-.3-3-.5-4.4-.5s-3,.3-4,1c-1,.7-1.7,1.6-2.2,2.9v13.9h-4.9v-22.2h4.6l.2,3.5c.9-1.2,2-2.1,3.2-2.8,1.2-.7,2.6-1,4.1-1M305.1,170.2v22.2h-4.4l-.3-3c-.8,1.1-1.7,1.9-2.7,2.6-1.1.6-2.3.9-3.6.9s-2.2-.2-3.2-.5c-.9-.4-1.8-.9-2.4-1.7-.7-.8-1.2-1.8-1.6-3-.4-1.2-.6-2.6-.6-4.3v-13.1h4.9v13.2c0,1.1,0,1.9.2,2.6.2.7.4,1.3.7,1.7.3.4.7.7,1.2.9.5.2,1.1.2,1.8.2,1.3,0,2.4-.3,3.2-.8.8-.5,1.4-1.2,1.8-2.1v-15.7h4.9M248.6,170.2v18.1h6.6v4.1h-18.4v-4.1h6.9v-14h-6.9v-4.1h11.8M325.3,116.9h-14v6.1h7.1v21.4h-7.1v6.1h20.8v-6.1h-6.8v-27.4h0ZM207.3,118.6h-25.2v6.1h9.1v25.8h6.9v-25.8h9.2v-6.1h0ZM372.7,120.9h-6.9v5.4h-5.4v5.6h5.4v9.9c0,1.5.2,2.9.6,4,.4,1.2,1,2.1,1.8,2.9.8.8,1.7,1.3,2.8,1.7,1,.3,2.2.5,3.4.5s1.3,0,2-.1c.6,0,1.3-.1,1.9-.3.6-.1,1.2-.3,1.8-.4.6-.2,1.1-.4,1.5-.7l.6-.3v-.7c-.1,0-.7-3.4-.7-3.4l-.2-1.1-1.1.3c-.2,0-.5.1-.9.2-.3,0-.7.1-1.1.2-.4,0-.8.1-1.3.2-.4,0-.8,0-1.2,0s-.9,0-1.3-.2c-.3,0-.6-.2-.8-.5-.2-.2-.4-.5-.6-.9-.1-.4-.2-1-.2-1.7v-9.6h8.4v-5.6h-8.4v-5.4h0ZM396.8,125.8c-1.5,0-3,.3-4.4.9-1.4.6-2.6,1.4-3.7,2.5-1,1.1-1.9,2.4-2.5,3.9-.6,1.5-.9,3.3-.9,5.1v.8c0,1.6.3,3.2.9,4.6.6,1.4,1.4,2.7,2.5,3.7,1.1,1.1,2.3,1.9,3.8,2.5,1.5.6,3.1.9,4.9.9s2.3-.1,3.3-.4c1-.2,1.9-.6,2.7-1,.8-.4,1.6-.9,2.2-1.5.6-.6,1.1-1.2,1.5-1.8l.5-.7-.6-.6-2.7-2.5-.8-.8-.7.9c-.6.7-1.3,1.3-2.2,1.7-.9.4-1.9.6-3,.6s-1.5-.1-2.1-.4c-.6-.3-1.2-.6-1.6-1.1-.4-.4-.8-1-1.1-1.6-.1-.3-.3-.6-.4-1h15.2v-3.1c0-1.7-.2-3.3-.7-4.7-.5-1.5-1.2-2.7-2.1-3.8-.9-1.1-2.1-1.9-3.4-2.5-1.3-.6-2.9-.9-4.7-.9h0ZM392.7,135.3c0-.3.2-.6.3-.9.3-.6.6-1.1,1-1.4.4-.4.8-.7,1.3-.9.5-.2,1-.3,1.5-.3s1.3.1,1.8.3c.5.2.9.5,1.2.9.3.4.6.8.7,1.3.1.3.2.6.3.9h-8.1ZM345.8,125.8c-1.6,0-3,.2-4.2.6-1.2.4-2.3,1-3.2,1.7-.9.7-1.6,1.6-2,2.5-.5.9-.7,1.9-.7,2.9v1h6.9v-1c0-.3,0-.5.2-.8.1-.2.3-.4.5-.6.2-.2.5-.3.9-.4.4-.1.9-.2,1.4-.2,1.2,0,2.1.3,2.7.8.6.5.8,1.2.8,2v.5h-2.6c-3.5,0-6.3.7-8.2,2.1-2,1.5-3.1,3.6-3.1,6.3s.2,2.1.6,3c.4.9,1,1.8,1.8,2.4.8.7,1.7,1.2,2.8,1.6,1.1.4,2.3.6,3.5.6s1.5,0,2.2-.2c.7-.2,1.3-.4,1.9-.6.6-.2,1.1-.5,1.6-.9,0,.3.2.5.3.8l.3.6h6.6v-1.8c-.3-.5-.5-1.1-.7-1.8-.1-.7-.2-1.6-.2-2.5v-9.9c0-1.4-.3-2.7-.8-3.8-.5-1.1-1.3-2-2.2-2.7-.9-.7-2-1.3-3.3-1.6-1.2-.4-2.5-.5-3.9-.5h0ZM344.9,144.9c-.5,0-1,0-1.4-.2-.3-.1-.6-.3-.8-.5-.2-.2-.3-.4-.4-.6-.1-.3-.2-.6-.2-.9,0-.9.3-1.5,1-1.9.8-.5,2.1-.8,3.9-.8h2.1v2.9c-.1.2-.3.4-.5.6-.3.3-.6.5-.9.7-.4.2-.8.4-1.3.5-.4.1-.9.2-1.5.2h0ZM295.8,125.8c-1.5,0-2.9.2-4.1.6-1.2.4-2.3.9-3.2,1.6-.9.7-1.6,1.5-2.1,2.5-.5.9-.7,2-.7,3s.3,2.1.8,3c.5.8,1.2,1.5,2,2.2.8.6,1.8,1.1,3,1.5,1.1.4,2.4.7,3.7,1,1,.2,1.8.4,2.5.6.6.2,1,.4,1.3.6.3.2.4.3.5.4,0,.2.1.4.1.6,0,.3,0,.7-.7,1.2-.6.4-1.6.6-2.9.6s-1.1,0-1.6-.2c-.5-.1-.9-.3-1.3-.5-.4-.2-.6-.5-.9-.9-.2-.3-.3-.8-.4-1.3v-.9h-6.8v1c0,1.1.2,2.1.7,3.1.5,1,1.2,1.9,2.2,2.7.9.8,2.1,1.4,3.4,1.9,1.3.5,2.9.7,4.6.7s2.9-.2,4.2-.5c1.3-.4,2.4-.9,3.3-1.5,1-.7,1.7-1.5,2.2-2.5.5-1,.8-2,.8-3.2s-.3-2.2-.8-3.1c-.5-.9-1.2-1.6-2.1-2.2-.8-.6-1.9-1.1-3.1-1.5-1.1-.4-2.5-.7-3.9-1-.9-.2-1.7-.3-2.3-.5-.5-.2-.9-.4-1.2-.5-.2-.1-.3-.3-.4-.4,0-.1,0-.4,0-.6s0-.4.1-.6c0-.2.2-.3.5-.5.3-.2.6-.4,1-.5.5-.1,1-.2,1.7-.2s1.2,0,1.6.2c.5.1.8.3,1.1.6.3.2.5.5.6.7.1.3.2.5.2.8v1h6.9v-1c0-1.1-.3-2.2-.8-3.2-.5-1-1.2-1.9-2.1-2.6-.9-.7-2-1.3-3.3-1.7-1.3-.4-2.7-.6-4.3-.6h0ZM272.4,125.8c-1.6,0-3,.4-4.3,1-.6.3-1.2.7-1.7,1.1v-.9c0,0-.2-.9-.2-.9h-6.3v24.2h6.9v-16.6c.4-.6.9-1,1.4-1.4.6-.4,1.4-.6,2.3-.6s1.2,0,1.6.2c.4.1.7.3,1,.5.3.3.5.6.6,1.1.2.5.3,1.2.3,2v14.8h6.9v-14.9c0-1.7-.2-3.1-.6-4.3-.4-1.2-1-2.3-1.8-3.1-.8-.8-1.7-1.4-2.8-1.8-1-.4-2.2-.5-3.4-.5h0ZM244.9,125.8c-1.6,0-3,.2-4.2.6-1.2.4-2.3,1-3.2,1.7-.9.7-1.6,1.6-2,2.5-.5.9-.7,1.9-.7,2.9v1h6.9v-1c0-.3,0-.5.2-.8.1-.2.3-.4.5-.6.2-.2.5-.3.9-.4.4-.1.9-.2,1.4-.2,1.2,0,2.1.3,2.7.8.6.5.9,1.1.9,2v.5h-2.6c-3.5,0-6.3.7-8.2,2.1-2,1.5-3.1,3.6-3.1,6.3s.2,2.1.6,3c.4.9,1,1.7,1.8,2.4.8.7,1.7,1.2,2.8,1.6,1.1.4,2.3.6,3.5.6s1.5,0,2.2-.2c.7-.2,1.3-.4,1.9-.6.6-.2,1.1-.5,1.6-.9,0,.3.2.5.3.8l.3.6h6.6v-1.8c-.3-.5-.5-1.1-.7-1.8-.1-.7-.2-1.6-.2-2.5v-9.9c0-1.4-.3-2.7-.8-3.8-.5-1.1-1.3-2-2.2-2.7-.9-.7-2-1.3-3.3-1.6-1.2-.4-2.5-.5-3.9-.5h0ZM244,144.9c-.5,0-1,0-1.4-.2-.3-.1-.6-.3-.8-.5-.2-.2-.3-.4-.4-.6-.1-.3-.2-.6-.2-.9,0-.9.3-1.5,1-1.9.8-.5,2.1-.8,3.9-.8h2.1v2.9c-.1.2-.3.4-.5.6-.3.3-.6.5-.9.7-.4.2-.8.4-1.3.5-.4.1-.9.2-1.5.2h0ZM225.7,125.8c-1.7,0-3.2.4-4.6,1.2-.7.4-1.3.8-1.9,1.3v-1.1c0,0-.1-.9-.1-.9h-6.5v24.2h6.9v-14.7c.4-1,1-1.7,1.8-2.2.8-.6,2-.8,3.4-.8s2.8.2,4.2.5l1.1.2.2-1.1.7-4.8v-.8c.1,0-.6-.3-.6-.3-.3-.1-.6-.2-1-.3-.3,0-.7-.1-1-.2-.4,0-.8-.1-1.2-.1-.4,0-.8,0-1.3,0h0ZM266.9,159.9h-6.9v33.5h6.4v-.9c0,0,.1-.3.1-.3.4.3.8.6,1.3.8,1.1.5,2.5.8,4,.8s3-.3,4.2-1c1.2-.6,2.2-1.5,3.1-2.6.8-1.1,1.4-2.4,1.8-3.9.4-1.5.6-3.1.6-4.8v-.4c0-1.8-.2-3.4-.6-4.8-.4-1.5-1-2.8-1.8-3.9-.8-1.1-1.9-2-3.1-2.6-1.2-.6-2.6-.9-4.2-.9s-2.7.3-3.8.7c-.4.2-.7.4-1,.6v-10.2h0ZM266.9,177c.3-.6.7-1.1,1.3-1.5.6-.4,1.3-.6,2.3-.6s1.4.2,1.9.5c.5.3.9.7,1.2,1.2.3.6.6,1.3.7,2,.2.8.2,1.7.2,2.6v.4c0,.9,0,1.8-.2,2.7-.2.8-.4,1.4-.7,2-.3.5-.7.9-1.2,1.2-.5.3-1.1.4-1.8.4s-1.7-.2-2.3-.6c-.5-.4-1-.9-1.3-1.5v-8.7h0ZM246.1,160.9c-1.2,0-2.1.4-2.8,1.1-.7.7-1,1.5-1,2.6s.3,1.9,1,2.6c.7.7,1.6,1,2.8,1s2.1-.3,2.8-1c.7-.7,1.1-1.6,1.1-2.6s-.4-1.9-1.1-2.6c-.7-.7-1.6-1-2.8-1h0ZM207.3,161.6h-25.2v6.1h9.1v25.8h6.9v-25.8h9.2v-6.1h0ZM346.4,168.8c-1.5,0-3,.3-4.4.9-1.4.6-2.6,1.4-3.7,2.5-1,1.1-1.9,2.4-2.5,3.9-.6,1.5-.9,3.3-.9,5.1v.8c0,1.6.3,3.2.9,4.6.6,1.4,1.4,2.7,2.5,3.7,1.1,1,2.3,1.9,3.8,2.5,1.5.6,3.1.9,4.9.9s2.3-.1,3.3-.4c1-.2,1.9-.6,2.7-1,.8-.4,1.6-.9,2.2-1.5.6-.6,1.1-1.2,1.5-1.8l.5-.7-.6-.6-2.7-2.5-.8-.8-.7.9c-.6.7-1.3,1.3-2.2,1.7-.9.4-1.9.6-3,.6s-1.5-.1-2.1-.4c-.6-.3-1.2-.6-1.6-1.1-.4-.4-.8-1-1.1-1.6-.1-.3-.3-.6-.4-1h15.2v-3.1c0-1.7-.2-3.3-.7-4.7-.5-1.5-1.2-2.7-2.1-3.8-.9-1.1-2.1-1.9-3.4-2.5-1.3-.6-2.9-.9-4.7-.9h0ZM342.3,178.3c0-.3.2-.6.3-.9.3-.6.6-1.1,1-1.4.4-.4.8-.7,1.3-.9.5-.2,1-.3,1.5-.3s1.3.1,1.8.3c.5.2.9.5,1.2.9.3.4.6.8.7,1.3.1.3.2.6.3.9h-8.1ZM322.9,168.8c-1.6,0-3,.4-4.3,1-.6.3-1.2.7-1.7,1.1v-.9c0,0-.2-.9-.2-.9h-6.3v24.2h6.9v-16.6c.4-.6.9-1,1.4-1.4.6-.4,1.4-.6,2.3-.6s1.2,0,1.6.2c.4.1.7.3,1,.5.3.3.5.6.6,1.1.2.5.3,1.2.3,2v14.8h6.9v-14.9c0-1.7-.2-3.1-.6-4.3-.4-1.2-1-2.3-1.8-3.1-.8-.8-1.7-1.4-2.8-1.8-1-.4-2.2-.5-3.4-.5h0ZM225.7,168.8c-1.7,0-3.2.4-4.6,1.2-.7.4-1.3.8-1.9,1.3v-1.1c0,0-.1-.9-.1-.9h-6.5v24.2h6.9v-14.7c.4-1,1-1.7,1.8-2.2.8-.6,2-.8,3.4-.8s2.8.2,4.2.5l1.1.2.2-1.1.7-4.8v-.8c.1,0-.6-.3-.6-.3-.3-.1-.6-.2-1-.3-.3,0-.7-.1-1-.2-.4,0-.8-.1-1.2-.1-.4,0-.8,0-1.3,0h0ZM306.1,169.2h-6.9v16.5c-.3.6-.8,1.1-1.4,1.5-.6.4-1.5.6-2.6.6s-1.1,0-1.4-.2c-.3-.1-.6-.3-.8-.6-.2-.3-.4-.7-.5-1.3-.1-.6-.2-1.4-.2-2.4v-14.2h-6.9v14.1c0,1.8.2,3.3.6,4.6.4,1.3,1,2.4,1.8,3.3.8.9,1.8,1.6,2.8,2,1.1.4,2.2.6,3.5.6s2.9-.3,4.1-1c.5-.3,1-.7,1.5-1.1v.7c0,0,.2.9.2.9h6.3v-24.2h0ZM249.6,169.2h-13.8v6.1h6.9v12h-6.9v6.1h20.4v-6.1h-6.6v-18.1h0Z"/>
  </g>
</svg>